<svg width="36" height="36" viewBox="0 0 36 36" fill="none" xmlns="http://www.w3.org/2000/svg">
<path d="M18.0001 16.1667C16.9917 16.1667 16.1667 16.9917 16.1667 18.0001C16.1667 19.0084 16.9917 19.8334 18.0001 19.8334C19.0084 19.8334 19.8334 19.0084 19.8334 18.0001C19.8334 16.9917 19.0084 16.1667 18.0001 16.1667ZM18.0001 10.6667C16.9917 10.6667 16.1667 11.4917 16.1667 12.5001C16.1667 13.5084 16.9917 14.3334 18.0001 14.3334C19.0084 14.3334 19.8334 13.5084 19.8334 12.5001C19.8334 11.4917 19.0084 10.6667 18.0001 10.6667ZM18.0001 21.6667C16.9917 21.6667 16.1667 22.4917 16.1667 23.5001C16.1667 24.5084 16.9917 25.3334 18.0001 25.3334C19.0084 25.3334 19.8334 24.5084 19.8334 23.5001C19.8334 22.4917 19.0084 21.6667 18.0001 21.6667Z" fill="#424955"/>
</svg>
