<svg width="48" height="48" viewBox="0 0 48 48" fill="none" xmlns="http://www.w3.org/2000/svg">
<rect width="48" height="48" rx="24" fill="#FDF2F2"/>
<path d="M26.3999 15V19.8H31.1999" stroke="#DE3B40" stroke-width="1.44" stroke-miterlimit="10"/>
<path d="M31.1998 22.2V19.8L26.3998 15L16.7998 15V22.2" stroke="#DE3B40" stroke-width="1.44" stroke-miterlimit="10" stroke-linecap="square"/>
<path d="M16.7998 30.6001V33.0001H31.1998V30.6001" stroke="#DE3B40" stroke-width="1.44" stroke-miterlimit="10" stroke-linecap="square"/>
<path d="M22.2858 25.863C22.2858 26.2458 22.173 26.5416 21.9474 26.7504C21.7218 26.9592 21.4008 27.063 20.985 27.063H20.7246V28.2H19.7988V24.7734H20.985C21.4176 24.7734 21.7428 24.8676 21.96 25.0572C22.1772 25.2468 22.2858 25.5144 22.2858 25.863ZM20.7246 26.3088H20.8932C21.0324 26.3088 21.1428 26.2698 21.225 26.1918C21.3072 26.1138 21.348 26.0058 21.348 25.8684C21.348 25.6368 21.2202 25.5216 20.9634 25.5216H20.7246V26.3088Z" fill="#DE3B40"/>
<path d="M25.7399 26.4138C25.7399 26.9856 25.5827 27.4266 25.2677 27.7356C24.9527 28.0446 24.5105 28.2 23.9399 28.2H22.8311V24.7734H24.0173C24.5675 24.7734 24.9923 24.9138 25.2911 25.1952C25.5899 25.4766 25.7399 25.8828 25.7399 26.4138ZM24.7793 26.4468C24.7793 26.133 24.7169 25.9002 24.5927 25.7484C24.4685 25.5966 24.2801 25.521 24.0269 25.521H23.7575V27.4404H23.9639C24.2453 27.4404 24.4511 27.3588 24.5825 27.1956C24.7139 27.0324 24.7793 26.7828 24.7793 26.4468Z" fill="#DE3B40"/>
<path d="M27.266 28.2H26.354V24.7734H28.379V25.5162H27.266V26.1702H28.2926V26.913H27.266V28.2Z" fill="#DE3B40"/>
<path d="M33 22.2002L15 22.2002L15 30.6002L33 30.6002V22.2002Z" stroke="#DE3B40" stroke-width="1.44" stroke-miterlimit="10" stroke-linecap="square"/>
</svg>
