<svg width="95" height="32" viewBox="0 0 95 32" fill="none" xmlns="http://www.w3.org/2000/svg">
<path d="M32.1273 13.4254C32.869 11.9878 31.8254 10.2751 30.2078 10.2751H14.341C13.5198 10.2751 12.7697 10.7407 12.4053 11.4766L4.51671 27.4066C3.80575 28.8422 4.85029 30.5251 6.45237 30.5251H21.9905C22.7988 30.5251 23.5395 30.0737 23.9101 29.3555L32.1273 13.4254Z" fill="#0B47E1"/>
<path opacity="0.9" d="M28.9373 4.62532C29.6789 3.18771 28.6354 1.4751 27.0178 1.4751H11.151C10.3298 1.4751 9.57969 1.94069 9.2153 2.67654L1.32671 18.6065C0.615747 20.0422 1.66029 21.7251 3.26237 21.7251H18.8005C19.6088 21.7251 20.3495 21.2737 20.7201 20.5553L28.9373 4.62532Z" fill="#6C95FF"/>
<path d="M50.9252 13.15C50.9252 13.9564 50.7308 14.7124 50.342 15.418C49.9675 16.1236 49.37 16.6924 48.5492 17.1244C47.7427 17.5564 46.7205 17.7724 45.482 17.7724H42.9548V23.5612H39.9308V8.48438H45.482C46.6484 8.48438 47.642 8.68598 48.4628 9.08918C49.2836 9.49237 49.8957 10.0468 50.2988 10.7524C50.7165 11.458 50.9252 12.2572 50.9252 13.15ZM45.3524 15.3316C46.1875 15.3316 46.8069 15.1444 47.21 14.77C47.6131 14.3812 47.8148 13.8412 47.8148 13.15C47.8148 11.6812 46.994 10.9468 45.3524 10.9468H42.9548V15.3316H45.3524ZM57.9538 23.7556C56.8017 23.7556 55.7649 23.5036 54.8434 22.9996C53.9219 22.4812 53.1945 21.754 52.6618 20.818C52.1434 19.882 51.8842 18.802 51.8842 17.578C51.8842 16.354 52.1507 15.274 52.6834 14.338C53.2307 13.402 53.9721 12.682 54.9082 12.178C55.8443 11.6596 56.8881 11.4004 58.0402 11.4004C59.1923 11.4004 60.2361 11.6596 61.1722 12.178C62.1083 12.682 62.8427 13.402 63.3754 14.338C63.9227 15.274 64.1962 16.354 64.1962 17.578C64.1962 18.802 63.9154 19.882 63.3538 20.818C62.8065 21.754 62.0578 22.4812 61.1074 22.9996C60.1713 23.5036 59.1202 23.7556 57.9538 23.7556ZM57.9538 21.1204C58.5011 21.1204 59.0122 20.9908 59.4874 20.7316C59.9769 20.458 60.3657 20.0548 60.6538 19.522C60.9419 18.9892 61.0858 18.3412 61.0858 17.578C61.0858 16.4404 60.7834 15.5692 60.1786 14.9644C59.5881 14.3452 58.861 14.0356 57.997 14.0356C57.133 14.0356 56.4059 14.3452 55.8154 14.9644C55.2395 15.5692 54.9514 16.4404 54.9514 17.578C54.9514 18.7156 55.2322 19.594 55.7938 20.2132C56.3697 20.818 57.0898 21.1204 57.9538 21.1204ZM69.0065 13.4524C69.3953 12.8188 69.8992 12.322 70.5186 11.962C71.152 11.602 71.8721 11.422 72.6786 11.422V14.5972H71.8793C70.9289 14.5972 70.2089 14.8204 69.7193 15.2668C69.2441 15.7132 69.0065 16.4908 69.0065 17.5996V23.5612H65.9825V11.5948H69.0065V13.4524ZM77.804 14.0788V19.8676C77.804 20.2708 77.8976 20.566 78.0848 20.7532C78.2864 20.926 78.6177 21.0124 79.0784 21.0124H80.4824V23.5612H78.5816C76.0328 23.5612 74.7584 22.3228 74.7584 19.846V14.0788H73.3328V11.5948H74.7584V8.63558H77.804V11.5948H80.4824V14.0788H77.804ZM81.4479 17.5348C81.4479 16.3252 81.6855 15.2524 82.1607 14.3164C82.6502 13.3804 83.3055 12.6604 84.1263 12.1564C84.9614 11.6524 85.8902 11.4004 86.9127 11.4004C87.8056 11.4004 88.5832 11.5804 89.2455 11.9404C89.9224 12.3004 90.4624 12.754 90.8655 13.3012V11.5948H93.9111V23.5612H90.8655V21.8116C90.4767 22.3732 89.9367 22.8412 89.2455 23.2156C88.5686 23.5756 87.784 23.7556 86.8911 23.7556C85.8832 23.7556 84.9614 23.4964 84.1263 22.978C83.3055 22.4596 82.6502 21.7324 82.1607 20.7964C81.6855 19.846 81.4479 18.7588 81.4479 17.5348ZM90.8655 17.578C90.8655 16.8436 90.7216 16.2172 90.4335 15.6988C90.1454 15.166 89.7566 14.7628 89.2671 14.4892C88.7776 14.2012 88.2519 14.0572 87.6903 14.0572C87.1287 14.0572 86.6103 14.194 86.1351 14.4676C85.6599 14.7412 85.2711 15.1444 84.9687 15.6772C84.6806 16.1956 84.5367 16.8148 84.5367 17.5348C84.5367 18.2548 84.6806 18.8884 84.9687 19.4356C85.2711 19.9684 85.6599 20.3788 86.1351 20.6668C86.6246 20.9548 87.143 21.0988 87.6903 21.0988C88.2519 21.0988 88.7776 20.962 89.2671 20.6884C89.7566 20.4004 90.1454 19.9972 90.4335 19.4788C90.7216 18.946 90.8655 18.3124 90.8655 17.578Z" fill="#263238"/>
</svg>
