<svg width="36" height="36" viewBox="0 0 36 36" fill="none" xmlns="http://www.w3.org/2000/svg">
<rect width="36" height="36" rx="18" fill="#F3F4F6"/>
<path d="M23.5 17.2143V14.8572C23.5 13.3985 22.9206 11.9995 21.8891 10.9681C20.8577 9.93664 19.4587 9.35718 18 9.35718C16.5413 9.35718 15.1424 9.93664 14.1109 10.9681C13.0795 11.9995 12.5 13.3985 12.5 14.8572V17.2143C12.5 19.8072 10.1429 20.4357 10.1429 21.9286C10.1429 23.2643 13.2072 24.2857 18 24.2857C22.7929 24.2857 25.8572 23.2643 25.8572 21.9286C25.8572 20.4357 23.5 19.8072 23.5 17.2143Z" stroke="#565E6C" stroke-width="1.88571" stroke-miterlimit="10" stroke-linecap="square"/>
<path d="M18 25.8571C17.2056 25.8571 16.4592 25.8304 15.7568 25.7786C15.9065 26.2563 16.2049 26.6737 16.6083 26.97C17.0118 27.2664 17.4994 27.4262 18 27.4262C18.5006 27.4262 18.9882 27.2664 19.3916 26.97C19.7951 26.6737 20.0935 26.2563 20.2432 25.7786C19.5408 25.8304 18.7943 25.8571 18 25.8571Z" fill="#565E6C"/>
</svg>
