<svg width="48" height="48" viewBox="0 0 48 48" fill="none" xmlns="http://www.w3.org/2000/svg">
<rect width="48" height="48" rx="24" fill="#EEFDF3"/>
<path d="M16.2002 31.7998V32.9998C16.2002 33.3598 16.4402 33.5998 16.8002 33.5998L31.2002 33.5998C31.5602 33.5998 31.8002 33.3598 31.8002 32.9998V31.7998L16.2002 31.7998Z" fill="#117B34"/>
<path d="M27.6001 15.3599V18.5999H30.8401L27.6001 15.3599Z" fill="#117B34"/>
<path d="M32.9999 22.1999H31.7999L31.7999 19.7999H26.9999C26.6399 19.7999 26.3999 19.5599 26.3999 19.1999V14.3999L16.7999 14.3999C16.4399 14.3999 16.1999 14.6399 16.1999 14.9999L16.1999 22.1999H14.9999C14.6399 22.1999 14.3999 22.4399 14.3999 22.7999L14.3999 29.9999C14.3999 30.3599 14.6399 30.5999 14.9999 30.5999L32.9999 30.5999C33.3599 30.5999 33.5999 30.3599 33.5999 29.9999V22.7999C33.5999 22.4399 33.3599 22.1999 32.9999 22.1999ZM20.1599 28.1999L19.4999 27.1199L18.7799 28.1999H17.7599L18.8999 26.4599L17.8199 24.7799H18.8399L19.4399 25.8599L20.0399 24.7799H21.1199L20.0399 26.5199L21.1799 28.1999H20.1599ZM23.8199 28.1999H21.5999V24.7799H22.4999L22.4999 27.4799H23.8199V28.1999ZM25.2599 25.8599C25.3199 25.9199 25.4999 25.9799 25.7999 26.1599C26.0999 26.2799 26.2799 26.4599 26.3999 26.5799C26.5199 26.6999 26.5799 26.9399 26.5799 27.1799C26.5799 27.4199 26.5199 27.5999 26.3999 27.7199C26.2799 27.8399 26.1599 28.0199 25.9199 28.0799C25.6799 28.1399 25.4999 28.1999 25.1999 28.1999C24.9599 28.1999 24.7799 28.1999 24.5999 28.1399C24.4199 28.0799 24.2999 28.0799 24.1199 27.9599V27.1199C24.2999 27.2399 24.4799 27.2999 24.6599 27.3599C24.8399 27.4199 25.0199 27.4199 25.1999 27.4199C25.3199 27.4199 25.4399 27.4199 25.4999 27.3599C25.5599 27.2999 25.6199 27.2399 25.6199 27.1799C25.6199 27.1199 25.6199 27.1199 25.5599 27.0599C25.4999 26.9999 25.4999 26.9999 25.4399 26.9399C25.3799 26.8799 25.2599 26.8199 24.9599 26.6999C24.7199 26.5799 24.5399 26.5199 24.4799 26.3999C24.4199 26.2799 24.2999 26.2199 24.2399 26.0999C24.1799 25.9799 24.1799 25.8599 24.1799 25.6799C24.1799 25.3799 24.2999 25.1399 24.5399 24.9599C24.7799 24.7799 25.0799 24.7199 25.4999 24.7199C25.8599 24.7199 26.2199 24.7799 26.5799 24.9599L26.2799 25.6799C25.9799 25.5599 25.6799 25.4399 25.4399 25.4399C25.3199 25.4399 25.2599 25.4399 25.1999 25.4999C25.1399 25.5599 25.1399 25.6199 25.1399 25.6799C25.1399 25.7399 25.1999 25.7999 25.2599 25.8599ZM29.1599 28.1999L28.4999 27.1199L27.8399 28.1999H26.8199L27.9599 26.4599L26.8799 24.7799H27.8999L28.4999 25.8599L29.0999 24.7799H30.1799L29.0999 26.5199L30.2399 28.1999H29.1599Z" fill="#117B34"/>
</svg>
