<svg width="16" height="16" viewBox="0 0 16 16" fill="none" xmlns="http://www.w3.org/2000/svg">
<path d="M8 14.2857L8 12" stroke="#2D66F5" stroke-width="1.37143" stroke-miterlimit="10" stroke-linecap="square"/>
<path d="M4.57153 14.2856L11.4287 14.2856" stroke="#2D66F5" stroke-width="1.37143" stroke-miterlimit="10" stroke-linecap="square"/>
<path d="M7.9999 4.57132C8.31549 4.57132 8.57132 4.31549 8.57132 3.9999C8.57132 3.6843 8.31549 3.42847 7.9999 3.42847C7.6843 3.42847 7.42847 3.6843 7.42847 3.9999C7.42847 4.31549 7.6843 4.57132 7.9999 4.57132Z" fill="#2D66F5"/>
<path d="M13.1429 12.0001L2.85721 12.0001C2.22578 12.0001 1.71436 11.4886 1.71436 10.8572L1.71436 2.85721C1.71436 2.22578 2.22578 1.71436 2.85721 1.71436L13.1429 1.71436C13.7744 1.71436 14.2858 2.22578 14.2858 2.85721L14.2858 10.8572C14.2858 11.4886 13.7744 12.0001 13.1429 12.0001Z" stroke="#2D66F5" stroke-width="1.37143" stroke-miterlimit="10" stroke-linecap="square"/>
<path d="M1.71436 9.71436L14.2858 9.71436" stroke="#2D66F5" stroke-width="1.37143" stroke-miterlimit="10" stroke-linecap="square"/>
</svg>
