<svg width="36" height="36" viewBox="0 0 36 36" fill="none" xmlns="http://www.w3.org/2000/svg">
<rect width="36" height="36" rx="18" fill="#2D66F5"/>
<path d="M18.0002 20.3571C19.302 20.3571 20.3574 19.3018 20.3574 18C20.3574 16.6982 19.302 15.6428 18.0002 15.6428C16.6984 15.6428 15.6431 16.6982 15.6431 18C15.6431 19.3018 16.6984 20.3571 18.0002 20.3571Z" stroke="white" stroke-width="1.88571" stroke-miterlimit="10" stroke-linecap="square"/>
<path d="M24.2856 18C24.2847 17.5474 24.2352 17.0962 24.1379 16.6541L26.2703 15.0395L24.6989 12.3177L22.2294 13.3596C21.5607 12.7465 20.7669 12.2857 19.9029 12.009L19.5713 9.35718L16.4285 9.35718L16.0969 12.009C15.2329 12.2857 14.4392 12.7465 13.7704 13.3596L11.3009 12.3177L9.72949 15.0395L11.8619 16.6541C11.665 17.5406 11.665 18.4595 11.8619 19.346L9.72949 20.9606L11.3009 23.6823L13.7704 22.6405C14.4392 23.2536 15.2329 23.7144 16.0969 23.9911L16.4285 26.6429H19.5713L19.9029 23.9911C20.7669 23.7144 21.5607 23.2536 22.2294 22.6405L24.6989 23.6823L26.2703 20.9606L24.1379 19.346C24.2352 18.9039 24.2847 18.4527 24.2856 18Z" stroke="white" stroke-width="1.88571" stroke-miterlimit="10" stroke-linecap="square"/>
</svg>
