
<svg width="56" height="216" viewBox="0 0 56 216" fill="none" xmlns="http://www.w3.org/2000/svg">
<path d="M25.17 70L27.17 72H36V82H20L20 70H25.17ZM26 68H20C18.9 68 18.01 68.9 18.01 70L18 82C18 83.1 18.9 84 20 84H36C37.1 84 38 83.1 38 82V72C38 70.9 37.1 70 36 70H28L26 68Z" fill="white"/>
<path d="M29 187C26.6131 187 24.3239 187.948 22.636 189.636C20.9482 191.324 20 193.613 20 196H17L20.89 199.89L20.96 200.03L25 196H22C22 192.13 25.13 189 29 189C32.87 189 36 192.13 36 196C36 199.87 32.87 203 29 203C27.07 203 25.32 202.21 24.06 200.94L22.64 202.36C23.4734 203.198 24.4645 203.863 25.5561 204.316C26.6476 204.769 27.8181 205.001 29 205C31.3869 205 33.6761 204.052 35.364 202.364C37.0518 200.676 38 198.387 38 196C38 193.613 37.0518 191.324 35.364 189.636C33.6761 187.948 31.3869 187 29 187ZM28 192V197L32.25 199.52L33.02 198.24L29.5 196.15V192H28Z" fill="white"/>
<path d="M28 161.27L34.18 165L32.54 157.97L38 153.24L30.81 152.63L28 146L25.19 152.63L18 153.24L23.46 157.97L21.82 165L28 161.27Z" fill="white"/>
<path d="M32.0003 118.571H37.4286V115.194C37.4286 114.607 37.1209 114.063 36.6169 113.761L34.1954 112.308" stroke="white" stroke-width="2.05714" stroke-miterlimit="10"/>
<path d="M29.0697 108.456C29.512 107.35 30.5929 106.572 31.8571 106.572C33.514 106.572 34.8571 107.915 34.8571 109.572V110.429C34.8571 112.086 33.514 113.429 31.8571 113.429C31.3883 113.429 30.9666 113.326 30.5714 113.134" stroke="white" stroke-width="2.05714" stroke-miterlimit="10"/>
<path d="M23.5926 116.763L19.6951 119.098C18.9983 119.515 18.5714 120.269 18.5714 121.082L18.5714 124.572H34V121.082C34 120.27 33.5731 119.516 32.8763 119.098L28.9789 116.763" stroke="white" stroke-width="2.05714" stroke-miterlimit="10"/>
<path d="M26.2857 117.714C23.9191 117.714 22 115.795 22 113.428V111.714C22 109.348 23.9191 107.428 26.2857 107.428C28.6523 107.428 30.5714 109.348 30.5714 111.714V113.428C30.5714 115.795 28.6523 117.714 26.2857 117.714Z" stroke="white" stroke-width="2.05714" stroke-miterlimit="10" stroke-linecap="square"/>
<path d="M28 19.5867L34.6667 25.5867V36H32V28L24 28L24 36H21.3333L21.3333 25.5867L28 19.5867ZM28 16L14.6667 28H18.6667L18.6667 38.6667H26.6667L26.6667 30.6667H29.3333L29.3333 38.6667L37.3333 38.6667L37.3333 28H41.3333L28 16Z" fill="white"/>
</svg>
