<svg width="36" height="36" viewBox="0 0 36 36" fill="none" xmlns="http://www.w3.org/2000/svg">
<path d="M18 16.1667C16.9916 16.1667 16.1666 16.9917 16.1666 18.0001C16.1666 19.0084 16.9916 19.8334 18 19.8334C19.0083 19.8334 19.8333 19.0084 19.8333 18.0001C19.8333 16.9917 19.0083 16.1667 18 16.1667ZM18 10.6667C16.9916 10.6667 16.1666 11.4917 16.1666 12.5001C16.1666 13.5084 16.9916 14.3334 18 14.3334C19.0083 14.3334 19.8333 13.5084 19.8333 12.5001C19.8333 11.4917 19.0083 10.6667 18 10.6667ZM18 21.6667C16.9916 21.6667 16.1666 22.4917 16.1666 23.5001C16.1666 24.5084 16.9916 25.3334 18 25.3334C19.0083 25.3334 19.8333 24.5084 19.8333 23.5001C19.8333 22.4917 19.0083 21.6667 18 21.6667Z" fill="#9095A0"/>
</svg>
