<svg width="36" height="36" viewBox="0 0 36 36" fill="none" xmlns="http://www.w3.org/2000/svg">
<rect width="36" height="36" rx="18" fill="#DEE1E6"/>
<path d="M18 26.6429C22.7734 26.6429 26.6429 22.7734 26.6429 18C26.6429 13.2267 22.7734 9.35718 18 9.35718C13.2267 9.35718 9.35718 13.2267 9.35718 18C9.35718 22.7734 13.2267 26.6429 18 26.6429Z" stroke="#424955" stroke-width="1.88571" stroke-miterlimit="10" stroke-linecap="square"/>
<path d="M18 17.2144L18 21.9286" stroke="#424955" stroke-width="1.88571" stroke-miterlimit="10" stroke-linecap="square"/>
<path d="M18.0001 14.8571C18.434 14.8571 18.7858 14.5053 18.7858 14.0714C18.7858 13.6374 18.434 13.2856 18.0001 13.2856C17.5661 13.2856 17.2144 13.6374 17.2144 14.0714C17.2144 14.5053 17.5661 14.8571 18.0001 14.8571Z" fill="#424955"/>
</svg>
