<svg width="36" height="36" viewBox="0 0 36 36" fill="none" xmlns="http://www.w3.org/2000/svg">
<path d="M22.7144 16.4285C24.4501 16.4285 25.8572 15.0214 25.8572 13.2857C25.8572 11.5499 24.4501 10.1428 22.7144 10.1428C20.9786 10.1428 19.5715 11.5499 19.5715 13.2857C19.5715 15.0214 20.9786 16.4285 22.7144 16.4285Z" stroke="#424955" stroke-width="1.88571" stroke-miterlimit="10" stroke-linecap="square"/>
<path d="M13.2857 16.4285C15.0214 16.4285 16.4285 15.0214 16.4285 13.2857C16.4285 11.5499 15.0214 10.1428 13.2857 10.1428C11.5499 10.1428 10.1428 11.5499 10.1428 13.2857C10.1428 15.0214 11.5499 16.4285 13.2857 16.4285Z" stroke="#424955" stroke-width="1.88571" stroke-miterlimit="10" stroke-linecap="square"/>
<path d="M22.7144 25.8572C24.4501 25.8572 25.8572 24.4501 25.8572 22.7144C25.8572 20.9786 24.4501 19.5715 22.7144 19.5715C20.9786 19.5715 19.5715 20.9786 19.5715 22.7144C19.5715 24.4501 20.9786 25.8572 22.7144 25.8572Z" stroke="#424955" stroke-width="1.88571" stroke-miterlimit="10" stroke-linecap="square"/>
<path d="M13.2857 25.8572C15.0214 25.8572 16.4285 24.4501 16.4285 22.7144C16.4285 20.9786 15.0214 19.5715 13.2857 19.5715C11.5499 19.5715 10.1428 20.9786 10.1428 22.7144C10.1428 24.4501 11.5499 25.8572 13.2857 25.8572Z" stroke="#424955" stroke-width="1.88571" stroke-miterlimit="10" stroke-linecap="square"/>
</svg>
