<svg width="24" height="24" viewBox="0 0 24 24" fill="none" xmlns="http://www.w3.org/2000/svg">
<path d="M6.8503 17.7747L8.74287 19.2001C9.17487 19.5241 9.42858 20.0315 9.42858 20.5715V21.4287H2.57144V20.5715C2.57144 20.0315 2.82516 19.5241 3.25716 19.2001L5.14973 17.7747" stroke="#565E6C" stroke-width="2.05714" stroke-miterlimit="10"/>
<path d="M5.99999 18.0001C5.05285 18.0001 4.28571 17.2329 4.28571 16.2858L4.28571 15.4286C4.28571 14.4815 5.05285 13.7144 5.99999 13.7144C6.94713 13.7144 7.71428 14.4815 7.71428 15.4286V16.2858C7.71428 17.2329 6.94713 18.0001 5.99999 18.0001Z" stroke="#565E6C" stroke-width="2.05714" stroke-miterlimit="10" stroke-linecap="square"/>
<path d="M12.8503 6.63184L14.7429 8.05726C15.1749 8.38126 15.4286 8.88869 15.4286 9.42869V10.2858L8.57144 10.2858L8.57144 9.42869C8.57144 8.88869 8.82516 8.38126 9.25716 8.05726L11.1497 6.63184" stroke="#565E6C" stroke-width="2.05714" stroke-miterlimit="10"/>
<path d="M12 6.85725C11.0528 6.85725 10.2857 6.0901 10.2857 5.14296V4.28582C10.2857 3.33868 11.0528 2.57153 12 2.57153C12.9471 2.57153 13.7143 3.33868 13.7143 4.28582V5.14296C13.7143 6.0901 12.9471 6.85725 12 6.85725Z" stroke="#565E6C" stroke-width="2.05714" stroke-miterlimit="10" stroke-linecap="square"/>
<path d="M18.8503 17.7747L20.7429 19.2001C21.1749 19.5241 21.4286 20.0315 21.4286 20.5715V21.4287H14.5714L14.5714 20.5715C14.5714 20.0315 14.8252 19.5241 15.2572 19.2001L17.1497 17.7747" stroke="#565E6C" stroke-width="2.05714" stroke-miterlimit="10"/>
<path d="M18 18.0001C17.0528 18.0001 16.2857 17.2329 16.2857 16.2858V15.4286C16.2857 14.4815 17.0528 13.7144 18 13.7144C18.9471 13.7144 19.7143 14.4815 19.7143 15.4286V16.2858C19.7143 17.2329 18.9471 18.0001 18 18.0001Z" stroke="#565E6C" stroke-width="2.05714" stroke-miterlimit="10" stroke-linecap="square"/>
</svg>
