<svg width="36" height="36" viewBox="0 0 36 36" fill="none" xmlns="http://www.w3.org/2000/svg">
<path d="M25.5625 11.125V15.25C25.5625 15.4323 25.4901 15.6072 25.3611 15.7361C25.2322 15.8651 25.0573 15.9375 24.875 15.9375C24.6927 15.9375 24.5178 15.8651 24.3889 15.7361C24.2599 15.6072 24.1875 15.4323 24.1875 15.25V12.7845L19.8614 17.1114C19.7324 17.2404 19.5574 17.3129 19.375 17.3129C19.1926 17.3129 19.0176 17.2404 18.8886 17.1114C18.7596 16.9824 18.6871 16.8074 18.6871 16.625C18.6871 16.4426 18.7596 16.2676 18.8886 16.1386L23.2155 11.8125L20.75 11.8125C20.5677 11.8125 20.3928 11.7401 20.2639 11.6111C20.1349 11.4822 20.0625 11.3073 20.0625 11.125C20.0625 10.9427 20.1349 10.7678 20.2639 10.6389C20.3928 10.5099 20.5677 10.4375 20.75 10.4375L24.875 10.4375C25.0573 10.4375 25.2322 10.5099 25.3611 10.6389C25.4901 10.7678 25.5625 10.9427 25.5625 11.125ZM16.1386 18.8886L11.8125 23.2155L11.8125 20.75C11.8125 20.5677 11.7401 20.3928 11.6111 20.2639C11.4822 20.1349 11.3073 20.0625 11.125 20.0625C10.9427 20.0625 10.7678 20.1349 10.6389 20.2639C10.5099 20.3928 10.4375 20.5677 10.4375 20.75L10.4375 24.875C10.4375 25.0573 10.5099 25.2322 10.6389 25.3611C10.7678 25.4901 10.9427 25.5625 11.125 25.5625H15.25C15.4323 25.5625 15.6072 25.4901 15.7361 25.3611C15.8651 25.2322 15.9375 25.0573 15.9375 24.875C15.9375 24.6927 15.8651 24.5178 15.7361 24.3889C15.6072 24.2599 15.4323 24.1875 15.25 24.1875H12.7845L17.1114 19.8614C17.2404 19.7324 17.3129 19.5574 17.3129 19.375C17.3129 19.1926 17.2404 19.0176 17.1114 18.8886C16.9824 18.7596 16.8074 18.6871 16.625 18.6871C16.4426 18.6871 16.2676 18.7596 16.1386 18.8886Z" fill="#9095A0"/>
</svg>
