<svg width="18" height="21" viewBox="0 0 18 21" fill="none" xmlns="http://www.w3.org/2000/svg">
<path d="M16.6249 0L0.874995 0C0.642932 0 0.420374 0.0921868 0.25628 0.25628C0.0921867 0.420374 0 0.642932 0 0.874996L0 20.1249C0 20.357 0.0921867 20.5795 0.25628 20.7436C0.420374 20.9077 0.642932 20.9999 0.874995 20.9999L16.6249 20.9999C16.857 20.9999 17.0795 20.9077 17.2436 20.7436C17.4077 20.5795 17.4999 20.357 17.4999 20.1249L17.4999 0.874996C17.4999 0.642932 17.4077 0.420374 17.2436 0.25628C17.0795 0.0921868 16.857 0 16.6249 0ZM9.64945 16.3834H7.84259L7.84259 7.87496L9.64945 7.87496L9.64945 16.3834ZM9.49983 6.35159C9.4001 6.44292 9.28301 6.51323 9.15553 6.55833C9.02805 6.60343 8.8928 6.62239 8.75783 6.61409C8.62039 6.62328 8.4825 6.60479 8.35233 6.5597C8.22217 6.51461 8.10239 6.44384 8.00008 6.35159C7.90957 6.25435 7.83965 6.13981 7.79454 6.01485C7.74943 5.8899 7.73006 5.75711 7.73759 5.62447C7.72838 5.48876 7.74691 5.35259 7.79204 5.22428C7.83717 5.09596 7.90795 4.97817 8.00008 4.8781C8.10258 4.78614 8.22239 4.71556 8.3525 4.67049C8.48262 4.62542 8.62042 4.60676 8.75783 4.6156C8.89277 4.6076 9.02794 4.62671 9.15538 4.67179C9.28282 4.71688 9.39994 4.78702 9.49983 4.8781C9.59196 4.97817 9.66274 5.09596 9.70787 5.22428C9.753 5.35259 9.77153 5.48876 9.76232 5.62447C9.76985 5.75711 9.75048 5.8899 9.70537 6.01485C9.66026 6.13981 9.59034 6.25435 9.49983 6.35159Z" fill="#14923E"/>
</svg>
