<svg width="48" height="48" viewBox="0 0 48 48" fill="none" xmlns="http://www.w3.org/2000/svg">
<rect x="0.5" y="0.5" width="47" height="47" rx="3.5" fill="#FDF2F2"/>
<rect x="0.5" y="0.5" width="47" height="47" rx="3.5" stroke="#FAFAFB"/>
<path d="M27.4 15V19.8H32.2" stroke="#DE3B40" stroke-width="1.44" stroke-miterlimit="10"/>
<path d="M32.2 22.2V19.8L27.4 15L17.8 15V22.2" stroke="#DE3B40" stroke-width="1.44" stroke-miterlimit="10" stroke-linecap="square"/>
<path d="M17.8 30.6001V33.0001H32.2V30.6001" stroke="#DE3B40" stroke-width="1.44" stroke-miterlimit="10" stroke-linecap="square"/>
<path d="M23.2858 25.863C23.2858 26.2458 23.173 26.5416 22.9474 26.7504C22.7218 26.9592 22.4008 27.063 21.985 27.063H21.7246V28.2H20.7988V24.7734H21.985C22.4176 24.7734 22.7428 24.8676 22.96 25.0572C23.1772 25.2468 23.2858 25.5144 23.2858 25.863ZM21.7246 26.3088H21.8932C22.0324 26.3088 22.1428 26.2698 22.225 26.1918C22.3072 26.1138 22.348 26.0058 22.348 25.8684C22.348 25.6368 22.2202 25.5216 21.9634 25.5216H21.7246V26.3088Z" fill="#DE3B40"/>
<path d="M26.74 26.4138C26.74 26.9856 26.5828 27.4266 26.2678 27.7356C25.9528 28.0446 25.5106 28.2 24.94 28.2H23.8312V24.7734H25.0174C25.5676 24.7734 25.9924 24.9138 26.2912 25.1952C26.59 25.4766 26.74 25.8828 26.74 26.4138ZM25.7794 26.4468C25.7794 26.133 25.717 25.9002 25.5928 25.7484C25.4686 25.5966 25.2802 25.521 25.027 25.521H24.7576V27.4404H24.964C25.2454 27.4404 25.4512 27.3588 25.5826 27.1956C25.714 27.0324 25.7794 26.7828 25.7794 26.4468Z" fill="#DE3B40"/>
<path d="M28.2658 28.2H27.3538V24.7734H29.3788V25.5162H28.2658V26.1702H29.2924V26.913H28.2658V28.2Z" fill="#DE3B40"/>
<path d="M34 22.2L16 22.2L16 30.6L34 30.6V22.2Z" stroke="#DE3B40" stroke-width="1.44" stroke-miterlimit="10" stroke-linecap="square"/>
</svg>
