
<svg width="40" height="80" viewBox="0 0 40 80" fill="none" xmlns="http://www.w3.org/2000/svg">
<path d="M27 53V55H23V53L27 53ZM17 53V59H13L13 53H17ZM27 61L27 67H23L23 61H27ZM17 65V67H13V65H17ZM29 51L21 51V57L29 57V51ZM19 51H11L11 61H19L19 51ZM29 59H21L21 69H29V59ZM19 63H11V69H19V63Z" fill="white"/>
<path d="M29 16C27.55 16 26.74 17.44 27.07 18.51L23.52 22.07C23.22 21.98 22.78 21.98 22.48 22.07L19.93 19.52C20.27 18.45 19.46 17 18 17C16.55 17 15.73 18.44 16.07 19.52L11.51 24.07C10.44 23.74 9 24.55 9 26C9 27.1 9.9 28 11 28C12.45 28 13.26 26.56 12.93 25.49L17.48 20.93C17.78 21.02 18.22 21.02 18.52 20.93L21.07 23.48C20.73 24.55 21.54 26 23 26C24.45 26 25.27 24.56 24.93 23.48L28.49 19.93C29.56 20.26 31 19.45 31 18C31 16.9 30.1 16 29 16Z" fill="white"/>
<path d="M23 17L23.94 14.93L26 14L23.94 13.07L23 11L22.08 13.07L20 14L22.08 14.93L23 17ZM11.5 19L12 17L14 16.5L12 16L11.5 14L11 16L9 16.5L11 17L11.5 19Z" fill="white"/>
</svg>
