<svg width="48" height="48" viewBox="0 0 48 48" fill="none" xmlns="http://www.w3.org/2000/svg">
<rect width="48" height="48" rx="24" fill="#DAECFA"/>
<rect width="48" height="48" rx="24" stroke="#BCC1CA"/>
<path d="M24 33L24 24" stroke="#197DCA" stroke-width="2.4" stroke-miterlimit="10"/>
<path d="M20 28L24 24L28 28" stroke="#197DCA" stroke-width="2.4" stroke-miterlimit="10" stroke-linecap="square"/>
<path d="M28.0001 32.7771C29.6146 32.4092 31.0964 31.6031 32.2822 30.4474C33.4681 29.2917 34.3122 27.8312 34.7215 26.2267C35.1308 24.6222 35.0896 22.9359 34.6022 21.3533C34.1149 19.7708 33.2004 18.3533 31.9594 17.257C30.7185 16.1607 29.1991 15.428 27.5685 15.1395C25.9379 14.8511 24.2594 15.0181 22.7176 15.6222C21.1758 16.2263 19.8306 17.244 18.8299 18.5633C17.8293 19.8827 17.212 21.4525 17.0461 23.1001C15.8347 23.3459 14.7572 24.0317 14.0217 25.0252C13.2862 26.0187 12.9448 27.2494 13.0633 28.4798C13.1819 29.7103 13.7521 30.8532 14.6637 31.6879C15.5754 32.5227 16.764 32.9901 18.0001 33.0001H20.0001" stroke="#197DCA" stroke-width="2.4" stroke-miterlimit="10" stroke-linecap="square"/>
</svg>
