<svg width="36" height="36" viewBox="0 0 36 36" fill="none" xmlns="http://www.w3.org/2000/svg">
<path d="M17.9998 16.1667C16.9915 16.1667 16.1665 16.9917 16.1665 18.0001C16.1665 19.0084 16.9915 19.8334 17.9998 19.8334C19.0082 19.8334 19.8332 19.0084 19.8332 18.0001C19.8332 16.9917 19.0082 16.1667 17.9998 16.1667ZM17.9998 10.6667C16.9915 10.6667 16.1665 11.4917 16.1665 12.5001C16.1665 13.5084 16.9915 14.3334 17.9998 14.3334C19.0082 14.3334 19.8332 13.5084 19.8332 12.5001C19.8332 11.4917 19.0082 10.6667 17.9998 10.6667ZM17.9998 21.6667C16.9915 21.6667 16.1665 22.4917 16.1665 23.5001C16.1665 24.5084 16.9915 25.3334 17.9998 25.3334C19.0082 25.3334 19.8332 24.5084 19.8332 23.5001C19.8332 22.4917 19.0082 21.6667 17.9998 21.6667Z" fill="#9095A0"/>
</svg>
