<svg width="93" height="32" viewBox="0 0 93 32" fill="none" xmlns="http://www.w3.org/2000/svg">
<rect width="93" height="32" stroke="#BCC1CA"/>
<path d="M30.8508 13.4254C31.5793 11.9878 30.5543 10.2751 28.9655 10.2751H13.3807C12.5742 10.2751 11.8373 10.7407 11.4794 11.4766L3.73109 27.4066C3.03276 28.8422 4.05874 30.5251 5.63233 30.5251H20.8942C21.6882 30.5251 22.4157 30.0737 22.7797 29.3555L30.8508 13.4254Z" fill="#0B47E1"/>
<path opacity="0.9" d="M27.6684 4.62532C28.3969 3.18771 27.3719 1.4751 25.7831 1.4751H10.1983C9.39175 1.4751 8.65495 1.94069 8.29704 2.67654L0.548681 18.6065C-0.149638 20.0422 0.876336 21.7251 2.44993 21.7251H17.7118C18.5058 21.7251 19.2333 21.2737 19.5973 20.5553L27.6684 4.62532Z" fill="#2D66F5"/>
<path d="M50.1097 13.1502C50.1097 13.9566 49.9188 14.7126 49.5369 15.4182C49.1691 16.1238 48.5822 16.6926 47.776 17.1246C46.9838 17.5566 45.9798 17.7726 44.7633 17.7726H42.281V23.5614H39.3108V8.48462H44.7633C45.909 8.48462 46.8849 8.68623 47.6911 9.08942C48.4973 9.49261 49.0985 10.047 49.4945 10.7526C49.9047 11.4582 50.1097 12.2574 50.1097 13.1502ZM44.636 15.3318C45.4563 15.3318 46.0647 15.1446 46.4606 14.7702C46.8565 14.3814 47.0546 13.8414 47.0546 13.1502C47.0546 11.6814 46.2484 10.947 44.636 10.947H42.281V15.3318H44.636ZM57.0134 23.7558C55.8818 23.7558 54.8635 23.5038 53.9583 22.9998C53.0532 22.4814 52.3388 21.7542 51.8155 20.8182C51.3063 19.8822 51.0517 18.8022 51.0517 17.5782C51.0517 16.3542 51.3135 15.2742 51.8367 14.3382C52.3743 13.4022 53.1025 12.6822 54.022 12.1782C54.9414 11.6598 55.9667 11.4006 57.0983 11.4006C58.2299 11.4006 59.2552 11.6598 60.1746 12.1782C61.0941 12.6822 61.8154 13.4022 62.3387 14.3382C62.8762 15.2742 63.1449 16.3542 63.1449 17.5782C63.1449 18.8022 62.8691 19.8822 62.3174 20.8182C61.7799 21.7542 61.0445 22.4814 60.111 22.9998C59.1915 23.5038 58.1591 23.7558 57.0134 23.7558ZM57.0134 21.1206C57.551 21.1206 58.053 20.991 58.5198 20.7318C59.0006 20.4582 59.3825 20.055 59.6654 19.5222C59.9484 18.9894 60.0898 18.3414 60.0898 17.5782C60.0898 16.4406 59.7927 15.5694 59.1987 14.9646C58.6187 14.3454 57.9045 14.0358 57.0559 14.0358C56.2072 14.0358 55.493 14.3454 54.9131 14.9646C54.3474 15.5694 54.0644 16.4406 54.0644 17.5782C54.0644 18.7158 54.3402 19.5942 54.8918 20.2134C55.4575 20.8182 56.1648 21.1206 57.0134 21.1206ZM67.8697 13.4526C68.2516 12.819 68.7464 12.3222 69.3548 11.9622C69.9769 11.6022 70.6842 11.4222 71.4764 11.4222V14.5974H70.6914C69.7579 14.5974 69.0506 14.8206 68.5698 15.267C68.103 15.7134 67.8697 16.491 67.8697 17.5998V23.5614H64.8994V11.595H67.8697V13.4526ZM76.5107 14.079V19.8678C76.5107 20.271 76.6027 20.5662 76.7865 20.7534C76.9846 20.9262 77.31 21.0126 77.7624 21.0126H79.1415V23.5614H77.2744C74.771 23.5614 73.5192 22.323 73.5192 19.8462V14.079H72.119V11.595H73.5192V8.63582H76.5107V11.595H79.1415V14.079H76.5107ZM80.0898 17.535C80.0898 16.3254 80.3232 15.2526 80.7899 14.3166C81.2707 13.3806 81.9144 12.6606 82.7206 12.1566C83.5409 11.6526 84.4531 11.4006 85.4575 11.4006C86.3345 11.4006 87.0983 11.5806 87.7488 11.9406C88.4136 12.3006 88.944 12.7542 89.34 13.3014V11.595H92.3314V23.5614H89.34V21.8118C88.9581 22.3734 88.4277 22.8414 87.7488 23.2158C87.0839 23.5758 86.3133 23.7558 85.4362 23.7558C84.4463 23.7558 83.5409 23.4966 82.7206 22.9782C81.9144 22.4598 81.2707 21.7326 80.7899 20.7966C80.3232 19.8462 80.0898 18.759 80.0898 17.535ZM89.34 17.5782C89.34 16.8438 89.1986 16.2174 88.9157 15.699C88.6327 15.1662 88.2508 14.763 87.77 14.4894C87.2892 14.2014 86.7729 14.0574 86.2212 14.0574C85.6696 14.0574 85.1604 14.1942 84.6937 14.4678C84.2269 14.7414 83.845 15.1446 83.548 15.6774C83.265 16.1958 83.1237 16.815 83.1237 17.535C83.1237 18.255 83.265 18.8886 83.548 19.4358C83.845 19.9686 84.2269 20.379 84.6937 20.667C85.1745 20.955 85.6837 21.099 86.2212 21.099C86.7729 21.099 87.2892 20.9622 87.77 20.6886C88.2508 20.4006 88.6327 19.9974 88.9157 19.479C89.1986 18.9462 89.34 18.3126 89.34 17.5782Z" fill="#263238"/>
</svg>
