<svg width="48" height="48" viewBox="0 0 48 48" fill="none" xmlns="http://www.w3.org/2000/svg">
<rect x="0.5" y="0.5" width="47" height="47" rx="3.5" fill="#FEF9EE"/>
<rect x="0.5" y="0.5" width="47" height="47" rx="3.5" stroke="#FAFAFB"/>
<path d="M34.4286 14.5715L15.5714 14.5715C15.3441 14.5715 15.1261 14.6618 14.9653 14.8226C14.8046 14.9833 14.7143 15.2013 14.7143 15.4287L14.7143 29.143C14.7143 29.3703 14.8046 29.5883 14.9653 29.7491C15.1261 29.9098 15.3441 30.0001 15.5714 30.0001L34.4286 30.0001C34.6559 30.0001 34.8739 29.9098 35.0347 29.7491C35.1954 29.5883 35.2857 29.3703 35.2857 29.143V15.4287C35.2857 15.2013 35.1954 14.9833 35.0347 14.8226C34.8739 14.6618 34.6559 14.5715 34.4286 14.5715ZM22.4286 26.5715L22.4286 18.0001L29.2857 22.2858L22.4286 26.5715Z" fill="#EFB034"/>
<path d="M30.1428 31.7144L19.8571 31.7144V33.4286H30.1428V31.7144Z" fill="#EFB034"/>
</svg>
