<svg width="20" height="20" viewBox="0 0 20 20" fill="none" xmlns="http://www.w3.org/2000/svg">
<path d="M19.0852 5.41959C18.8671 4.59841 18.2246 3.95167 17.4087 3.73219C15.9299 3.33337 9.99999 3.33337 9.99999 3.33337C9.99999 3.33337 4.07013 3.33337 2.59127 3.73219C1.7754 3.95171 1.13283 4.59841 0.914744 5.41959C0.518494 6.90803 0.518494 10.0135 0.518494 10.0135C0.518494 10.0135 0.518494 13.119 0.914744 14.6074C1.13283 15.4286 1.7754 16.0484 2.59127 16.2679C4.07013 16.6667 9.99999 16.6667 9.99999 16.6667C9.99999 16.6667 15.9298 16.6667 17.4087 16.2679C18.2246 16.0484 18.8671 15.4286 19.0852 14.6074C19.4815 13.119 19.4815 10.0135 19.4815 10.0135C19.4815 10.0135 19.4815 6.90803 19.0852 5.41959ZM8.06058 12.8331L8.06058 7.19396L13.0168 10.0136L8.06058 12.8331Z" fill="#565E6C"/>
</svg>
