<svg width="20" height="20" viewBox="0 0 20 20" fill="none" xmlns="http://www.w3.org/2000/svg">
<path d="M12 2.5L12 6.5L16 6.5" stroke="#DE3B40" stroke-width="1.2" stroke-miterlimit="10"/>
<path d="M16 8.5V6.5L12 2.5L4 2.5L4 8.5" stroke="#DE3B40" stroke-width="1.2" stroke-miterlimit="10" stroke-linecap="square"/>
<path d="M4 15.5L4 17.5L16 17.5V15.5" stroke="#DE3B40" stroke-width="1.2" stroke-miterlimit="10" stroke-linecap="square"/>
<path d="M8.5715 11.5525C8.5715 11.8715 8.4775 12.118 8.2895 12.292C8.1015 12.466 7.834 12.5525 7.4875 12.5525H7.2705L7.2705 13.5H6.499L6.499 10.6445H7.4875C7.848 10.6445 8.119 10.723 8.3 10.881C8.481 11.039 8.5715 11.262 8.5715 11.5525ZM7.2705 11.924H7.411C7.527 11.924 7.619 11.8915 7.6875 11.8265C7.756 11.7615 7.79 11.6715 7.79 11.557C7.79 11.364 7.6835 11.268 7.4695 11.268H7.2705V11.924Z" fill="#DE3B40"/>
<path d="M11.45 12.0115C11.45 12.488 11.319 12.8555 11.0565 13.113C10.794 13.3705 10.4255 13.5 9.95 13.5H9.026V10.6445H10.0145C10.473 10.6445 10.827 10.7615 11.076 10.996C11.325 11.2305 11.45 11.569 11.45 12.0115ZM10.6495 12.039C10.6495 11.7775 10.5975 11.5835 10.494 11.457C10.3905 11.3305 10.2335 11.2675 10.0225 11.2675H9.798V12.867H9.97C10.2045 12.867 10.376 12.799 10.4855 12.663C10.595 12.527 10.6495 12.319 10.6495 12.039Z" fill="#DE3B40"/>
<path d="M12.7215 13.5H11.9615V10.6445H13.649V11.2635H12.7215V11.8085H13.577V12.4275H12.7215V13.5Z" fill="#DE3B40"/>
<path d="M17.5 8.5L2.5 8.5L2.5 15.5L17.5 15.5V8.5Z" stroke="#DE3B40" stroke-width="1.2" stroke-miterlimit="10" stroke-linecap="square"/>
</svg>
