<svg width="70" height="32" viewBox="0 0 70 32" fill="none" xmlns="http://www.w3.org/2000/svg">
<path d="M35.0002 16.8574C35.4736 16.8574 35.8574 16.4736 35.8574 16.0002C35.8574 15.5268 35.4736 15.1431 35.0002 15.1431C34.5268 15.1431 34.1431 15.5268 34.1431 16.0002C34.1431 16.4736 34.5268 16.8574 35.0002 16.8574Z" stroke="#9095A0" stroke-width="1.02857" stroke-miterlimit="10" stroke-linecap="square"/>
<path d="M31.1428 16.8574C31.6162 16.8574 31.9999 16.4736 31.9999 16.0002C31.9999 15.5268 31.6162 15.1431 31.1428 15.1431C30.6694 15.1431 30.2856 15.5268 30.2856 16.0002C30.2856 16.4736 30.6694 16.8574 31.1428 16.8574Z" stroke="#9095A0" stroke-width="1.02857" stroke-miterlimit="10" stroke-linecap="square"/>
<path d="M38.8571 16.8574C39.3305 16.8574 39.7143 16.4736 39.7143 16.0002C39.7143 15.5268 39.3305 15.1431 38.8571 15.1431C38.3838 15.1431 38 15.5268 38 16.0002C38 16.4736 38.3838 16.8574 38.8571 16.8574Z" stroke="#9095A0" stroke-width="1.02857" stroke-miterlimit="10" stroke-linecap="square"/>
</svg>
