<svg width="36" height="36" viewBox="0 0 36 36" fill="none" xmlns="http://www.w3.org/2000/svg">
<rect width="36" height="36" rx="18" fill="#2D66F5"/>
<path d="M18 20.3571C19.3018 20.3571 20.3572 19.3018 20.3572 18C20.3572 16.6982 19.3018 15.6428 18 15.6428C16.6982 15.6428 15.6429 16.6982 15.6429 18C15.6429 19.3018 16.6982 20.3571 18 20.3571Z" stroke="white" stroke-width="1.88571" stroke-miterlimit="10" stroke-linecap="square"/>
<path d="M24.2857 18C24.2848 17.5474 24.2352 17.0962 24.138 16.6541L26.2704 15.0395L24.699 12.3177L22.2295 13.3596C21.5607 12.7465 20.767 12.2857 19.903 12.009L19.5714 9.35718L16.4286 9.35718L16.097 12.009C15.233 12.2857 14.4392 12.7465 13.7705 13.3596L11.301 12.3177L9.72955 15.0395L11.862 16.6541C11.6651 17.5406 11.6651 18.4595 11.862 19.346L9.72955 20.9606L11.301 23.6823L13.7705 22.6405C14.4392 23.2536 15.233 23.7144 16.097 23.9911L16.4286 26.6429H19.5714L19.903 23.9911C20.767 23.7144 21.5607 23.2536 22.2295 22.6405L24.699 23.6823L26.2704 20.9606L24.138 19.346C24.2352 18.9039 24.2848 18.4527 24.2857 18Z" stroke="white" stroke-width="1.88571" stroke-miterlimit="10" stroke-linecap="square"/>
</svg>
