<svg width="32" height="32" viewBox="0 0 32 32" fill="none" xmlns="http://www.w3.org/2000/svg">
<path d="M16.0002 17.3571C16.7497 17.3571 17.3574 16.7495 17.3574 16C17.3574 15.2504 16.7497 14.6428 16.0002 14.6428C15.2507 14.6428 14.6431 15.2504 14.6431 16C14.6431 16.7495 15.2507 17.3571 16.0002 17.3571Z" stroke="#171A1F" stroke-width="1.62857" stroke-miterlimit="10" stroke-linecap="square"/>
<path d="M9.89279 17.3571C10.6423 17.3571 11.2499 16.7495 11.2499 16C11.2499 15.2504 10.6423 14.6428 9.89279 14.6428C9.14326 14.6428 8.53564 15.2504 8.53564 16C8.53564 16.7495 9.14326 17.3571 9.89279 17.3571Z" stroke="#171A1F" stroke-width="1.62857" stroke-miterlimit="10" stroke-linecap="square"/>
<path d="M22.1071 17.3571C22.8567 17.3571 23.4643 16.7495 23.4643 16C23.4643 15.2504 22.8567 14.6428 22.1071 14.6428C21.3576 14.6428 20.75 15.2504 20.75 16C20.75 16.7495 21.3576 17.3571 22.1071 17.3571Z" stroke="#171A1F" stroke-width="1.62857" stroke-miterlimit="10" stroke-linecap="square"/>
</svg>
