<svg width="16" height="16" viewBox="0 0 16 16" fill="none" xmlns="http://www.w3.org/2000/svg">
<path d="M4.57132 1.71436L11.4285 1.71436C11.7316 1.71436 12.0223 1.83476 12.2366 2.04909C12.4509 2.26342 12.5713 2.55411 12.5713 2.85721L12.5713 13.1429C12.5713 13.446 12.4509 13.7367 12.2366 13.951C12.0223 14.1654 11.7316 14.2858 11.4285 14.2858L4.57132 14.2858C4.26822 14.2858 3.97753 14.1654 3.7632 13.951C3.54887 13.7367 3.42847 13.446 3.42847 13.1429L3.42847 2.85721C3.42847 2.55411 3.54887 2.26342 3.7632 2.04909C3.97753 1.83476 4.26822 1.71436 4.57132 1.71436Z" stroke="#2D66F5" stroke-width="1.37143" stroke-miterlimit="10" stroke-linecap="square"/>
<path d="M7.9999 12.5713C8.31549 12.5713 8.57132 12.3155 8.57132 11.9999C8.57132 11.6843 8.31549 11.4285 7.9999 11.4285C7.6843 11.4285 7.42847 11.6843 7.42847 11.9999C7.42847 12.3155 7.6843 12.5713 7.9999 12.5713Z" fill="#2D66F5"/>
</svg>
