<svg width="48" height="48" viewBox="0 0 48 48" fill="none" xmlns="http://www.w3.org/2000/svg">
<rect width="48" height="48" rx="24" fill="#F1F8FD"/>
<path d="M25.7144 28.2858C25.7144 28.0585 25.8047 27.8404 25.9655 27.6797C26.1262 27.5189 26.3442 27.4286 26.5716 27.4286H32.5716V14.5715C32.5716 14.3442 32.4813 14.1262 32.3205 13.9654C32.1598 13.8047 31.9418 13.7144 31.7144 13.7144L16.2859 13.7144C16.0585 13.7144 15.8405 13.8047 15.6798 13.9654C15.519 14.1262 15.4287 14.3442 15.4287 14.5715L15.4287 33.4286C15.4287 33.656 15.519 33.874 15.6798 34.0347C15.8405 34.1955 16.0585 34.2858 16.2859 34.2858H25.7144L25.7144 28.2858ZM18.0001 18.0001L30.0001 18.0001V19.7144L18.0001 19.7144V18.0001ZM18.0001 22.2858L30.0001 22.2858V24.0001L18.0001 24.0001V22.2858ZM23.143 28.2858H18.0001V26.5715H23.143V28.2858Z" fill="#379AE6"/>
<path d="M32.0693 29.1431H27.4287V33.7836L32.0693 29.1431Z" fill="#379AE6"/>
</svg>
