<svg width="36" height="36" viewBox="0 0 36 36" fill="none" xmlns="http://www.w3.org/2000/svg">
<path d="M17.0833 13.4166L18.9166 13.4166L18.9166 15.2499L17.0833 15.2499L17.0833 13.4166ZM17.0833 17.0833L18.9166 17.0833L18.9166 22.5833L17.0833 22.5833L17.0833 17.0833ZM18 8.83325C12.94 8.83325 8.83331 12.9399 8.83331 17.9999C8.83331 23.0599 12.94 27.1666 18 27.1666C23.06 27.1666 27.1666 23.0599 27.1666 17.9999C27.1666 12.9399 23.06 8.83325 18 8.83325ZM18 25.3333C13.9575 25.3333 10.6666 22.0424 10.6666 17.9999C10.6666 13.9574 13.9575 10.6666 18 10.6666C22.0425 10.6666 25.3333 13.9574 25.3333 17.9999C25.3333 22.0424 22.0425 25.3333 18 25.3333Z" fill="#9095A0"/>
</svg>
