<svg width="36" height="36" viewBox="0 0 36 36" fill="none" xmlns="http://www.w3.org/2000/svg">
<path d="M11.7143 13.2857C12.5822 13.2857 13.2857 12.5821 13.2857 11.7143C13.2857 10.8464 12.5822 10.1428 11.7143 10.1428C10.8464 10.1428 10.1429 10.8464 10.1429 11.7143C10.1429 12.5821 10.8464 13.2857 11.7143 13.2857Z" stroke="#424955" stroke-width="1.88571" stroke-miterlimit="10" stroke-linecap="square"/>
<path d="M11.7143 19.5713C12.5822 19.5713 13.2857 18.8678 13.2857 17.9999C13.2857 17.132 12.5822 16.4285 11.7143 16.4285C10.8464 16.4285 10.1429 17.132 10.1429 17.9999C10.1429 18.8678 10.8464 19.5713 11.7143 19.5713Z" stroke="#424955" stroke-width="1.88571" stroke-miterlimit="10" stroke-linecap="square"/>
<path d="M11.7143 25.8572C12.5822 25.8572 13.2857 25.1537 13.2857 24.2858C13.2857 23.4179 12.5822 22.7144 11.7143 22.7144C10.8464 22.7144 10.1429 23.4179 10.1429 24.2858C10.1429 25.1537 10.8464 25.8572 11.7143 25.8572Z" stroke="#424955" stroke-width="1.88571" stroke-miterlimit="10" stroke-linecap="square"/>
<path d="M16.4286 11.7144L25.8572 11.7144" stroke="#424955" stroke-width="1.88571" stroke-miterlimit="10" stroke-linecap="square"/>
<path d="M16.4286 18L25.8572 18" stroke="#424955" stroke-width="1.88571" stroke-miterlimit="10" stroke-linecap="square"/>
<path d="M16.4286 24.2856L25.8572 24.2856" stroke="#424955" stroke-width="1.88571" stroke-miterlimit="10" stroke-linecap="square"/>
</svg>
