<svg width="20" height="20" viewBox="0 0 20 20" fill="none" xmlns="http://www.w3.org/2000/svg">
<path d="M17.1429 2.14282L2.85714 2.14282C2.6677 2.14282 2.48602 2.21808 2.35207 2.35203C2.21811 2.48599 2.14286 2.66767 2.14286 2.85711L2.14286 17.1428C2.14286 17.3323 2.21811 17.5139 2.35207 17.6479C2.48602 17.7819 2.6677 17.8571 2.85714 17.8571L17.1429 17.8571C17.3323 17.8571 17.514 17.7819 17.6479 17.6479C17.7819 17.5139 17.8571 17.3323 17.8571 17.1428L17.8571 2.85711C17.8571 2.66767 17.7819 2.48599 17.6479 2.35203C17.514 2.21808 17.3323 2.14282 17.1429 2.14282ZM16.4286 16.4285L3.57143 16.4285L3.57143 3.57139L16.4286 3.57139L16.4286 16.4285Z" fill="#424955"/>
<path d="M5.71429 15L14.2857 15C14.4075 15.0001 14.5272 14.969 14.6336 14.9098C14.74 14.8505 14.8295 14.765 14.8935 14.6615C14.9576 14.5579 14.9941 14.4397 14.9996 14.3181C15.0051 14.1964 14.9794 14.0754 14.925 13.9665L12.0679 8.25217C12.0172 8.15085 11.9432 8.06304 11.8519 7.99597C11.7606 7.92891 11.6547 7.88451 11.5429 7.86645C11.4312 7.8474 11.3165 7.85564 11.2087 7.89046C11.1008 7.92528 11.003 7.98566 10.9236 8.06645L5.20929 13.7807C5.10942 13.8806 5.04142 14.0079 5.01387 14.1464C4.98632 14.285 5.00047 14.4286 5.05452 14.5591C5.10857 14.6896 5.20009 14.8011 5.31753 14.8796C5.43497 14.9581 5.57304 15 5.71429 15Z" fill="#424955"/>
<path d="M7.14286 8.5715C7.93184 8.5715 8.57143 7.93191 8.57143 7.14293C8.57143 6.35395 7.93184 5.71436 7.14286 5.71436C6.35388 5.71436 5.71429 6.35395 5.71429 7.14293C5.71429 7.93191 6.35388 8.5715 7.14286 8.5715Z" fill="#424955"/>
</svg>
