<svg width="36" height="36" viewBox="0 0 36 36" fill="none" xmlns="http://www.w3.org/2000/svg">
<rect width="36" height="36" rx="18" fill="#F3F4F6"/>
<path d="M23.5002 17.2143V14.8572C23.5002 13.3985 22.9207 11.9995 21.8893 10.9681C20.8578 9.93664 19.4589 9.35718 18.0002 9.35718C16.5415 9.35718 15.1426 9.93664 14.1111 10.9681C13.0797 11.9995 12.5002 13.3985 12.5002 14.8572V17.2143C12.5002 19.8072 10.1431 20.4357 10.1431 21.9286C10.1431 23.2643 13.2074 24.2857 18.0002 24.2857C22.7931 24.2857 25.8574 23.2643 25.8574 21.9286C25.8574 20.4357 23.5002 19.8072 23.5002 17.2143Z" stroke="#565E6C" stroke-width="1.88571" stroke-miterlimit="10" stroke-linecap="square"/>
<path d="M18 25.8571C17.2057 25.8571 16.4593 25.8304 15.7568 25.7786C15.9066 26.2563 16.2049 26.6737 16.6084 26.97C17.0119 27.2664 17.4994 27.4262 18 27.4262C18.5007 27.4262 18.9882 27.2664 19.3917 26.97C19.7952 26.6737 20.0935 26.2563 20.2433 25.7786C19.5408 25.8304 18.7944 25.8571 18 25.8571Z" fill="#565E6C"/>
</svg>
