<svg width="36" height="36" viewBox="0 0 36 36" fill="none" xmlns="http://www.w3.org/2000/svg">
<path d="M13.2792 23.2935L15.0141 24.6001C15.4101 24.8971 15.6426 25.3622 15.6426 25.8572L15.6426 26.643L9.35693 26.643V25.8572C9.35693 25.3622 9.5895 24.8971 9.9855 24.6001L11.7204 23.2935" stroke="#171A1F" stroke-width="1.88571" stroke-miterlimit="10"/>
<path d="M12.5001 23.5001C11.6319 23.5001 10.9287 22.7969 10.9287 21.9287L10.9287 21.143C10.9287 20.2747 11.6319 19.5715 12.5001 19.5715C13.3684 19.5715 14.0716 20.2747 14.0716 21.143L14.0716 21.9287C14.0716 22.7969 13.3684 23.5001 12.5001 23.5001Z" stroke="#171A1F" stroke-width="1.88571" stroke-miterlimit="10" stroke-linecap="square"/>
<path d="M18.7792 13.0791L20.5141 14.3857C20.9101 14.6827 21.1426 15.1479 21.1426 15.6429V16.4286L14.8569 16.4286V15.6429C14.8569 15.1479 15.0895 14.6827 15.4855 14.3857L17.2204 13.0791" stroke="#171A1F" stroke-width="1.88571" stroke-miterlimit="10"/>
<path d="M18.0001 13.2857C17.1319 13.2857 16.4287 12.5825 16.4287 11.7143V10.9286C16.4287 10.0604 17.1319 9.35718 18.0001 9.35718C18.8684 9.35718 19.5716 10.0604 19.5716 10.9286V11.7143C19.5716 12.5825 18.8684 13.2857 18.0001 13.2857Z" stroke="#171A1F" stroke-width="1.88571" stroke-miterlimit="10" stroke-linecap="square"/>
<path d="M24.2792 23.2935L26.0141 24.6001C26.4101 24.8971 26.6426 25.3622 26.6426 25.8572V26.643L20.3569 26.643V25.8572C20.3569 25.3622 20.5895 24.8971 20.9855 24.6001L22.7204 23.2935" stroke="#171A1F" stroke-width="1.88571" stroke-miterlimit="10"/>
<path d="M23.5001 23.5001C22.6319 23.5001 21.9287 22.7969 21.9287 21.9287V21.143C21.9287 20.2747 22.6319 19.5715 23.5001 19.5715C24.3684 19.5715 25.0716 20.2747 25.0716 21.143V21.9287C25.0716 22.7969 24.3684 23.5001 23.5001 23.5001Z" stroke="#171A1F" stroke-width="1.88571" stroke-miterlimit="10" stroke-linecap="square"/>
</svg>
